<?xml version="1.0" encoding="UTF-8" standalone="no"?>
<!-- Created with Inkscape (http://www.inkscape.org/) -->

<svg
   width="512"
   height="512"
   viewBox="0 0 512 512"
   version="1.1"
   id="svg1"
   xml:space="preserve"
   sodipodi:docname="logoV2.svg"
   inkscape:version="1.4.3 (0d15f75042, 2025-12-25)"
   inkscape:export-filename="logo.png"
   inkscape:export-xdpi="96"
   inkscape:export-ydpi="96"
   xmlns:inkscape="http://www.inkscape.org/namespaces/inkscape"
   xmlns:sodipodi="http://sodipodi.sourceforge.net/DTD/sodipodi-0.dtd"
   xmlns:xlink="http://www.w3.org/1999/xlink"
   xmlns="http://www.w3.org/2000/svg"
   xmlns:svg="http://www.w3.org/2000/svg"
   xmlns:rdf="http://www.w3.org/1999/02/22-rdf-syntax-ns#"
   xmlns:cc="http://creativecommons.org/ns#"
   xmlns:dc="http://purl.org/dc/elements/1.1/"><title
     id="title1">Kinu Logo</title><sodipodi:namedview
     id="namedview1"
     pagecolor="#505050"
     bordercolor="#eeeeee"
     borderopacity="1"
     inkscape:showpageshadow="0"
     inkscape:pageopacity="0"
     inkscape:pagecheckerboard="0"
     inkscape:deskcolor="#505050"
     inkscape:document-units="px"
     showgrid="false"
     inkscape:zoom="1.5625"
     inkscape:cx="408.96"
     inkscape:cy="224"
     inkscape:window-width="1920"
     inkscape:window-height="1011"
     inkscape:window-x="0"
     inkscape:window-y="0"
     inkscape:window-maximized="1"
     inkscape:current-layer="layer2" /><defs
     id="defs1"><inkscape:path-effect
       effect="fillet_chamfer"
       id="path-effect55"
       is_visible="true"
       lpeversion="1"
       nodesatellites_param="F,0,0,1,1,30,0,1 @ F,0,0,1,1,30,0,1 @ F,0,0,1,1,30,0,1 @ F,0,0,1,1,30,0,1 @ F,0,0,1,1,30,0,1 @ F,0,0,1,1,30,0,1"
       radius="30"
       unit="px"
       method="auto"
       mode="F"
       chamfer_steps="1"
       flexible="false"
       use_knot_distance="true"
       apply_no_radius="true"
       apply_with_radius="true"
       only_selected="false"
       hide_knots="true" /><inkscape:path-effect
       effect="fillet_chamfer"
       id="path-effect50"
       is_visible="true"
       lpeversion="1"
       nodesatellites_param="F,0,0,1,1,10.059495,0,1 @ F,0,0,1,1,10.059495,0,1 @ F,0,0,1,1,10.059495,0,1 @ F,0,0,1,1,10.059495,0,1 @ F,0,0,1,1,10.059495,0,1 @ F,0,0,1,1,10.059495,0,1 | F,0,0,1,1,10.059495,0,1 @ F,0,0,1,1,10.059495,0,1 @ F,0,0,1,1,10.059495,0,1 @ F,0,0,1,1,10.059495,0,1 @ F,0,0,1,1,10.059495,0,1 @ F,0,0,1,1,10.059495,0,1"
       radius="10"
       unit="px"
       method="auto"
       mode="F"
       chamfer_steps="1"
       flexible="false"
       use_knot_distance="true"
       apply_no_radius="true"
       apply_with_radius="true"
       only_selected="false"
       hide_knots="true" /><inkscape:path-effect
       effect="fillet_chamfer"
       id="path-effect41"
       is_visible="true"
       lpeversion="1"
       nodesatellites_param="F,0,0,1,0,0,0,1 @ F,0,0,1,0,0,0,1 @ F,0,0,1,0,0,0,1 @ F,0,0,1,0,0,0,1"
       radius="0"
       unit="px"
       method="auto"
       mode="F"
       chamfer_steps="1"
       flexible="false"
       use_knot_distance="true"
       apply_no_radius="true"
       apply_with_radius="true"
       only_selected="false"
       hide_knots="false" /><inkscape:path-effect
       effect="fillet_chamfer"
       id="path-effect34"
       is_visible="true"
       lpeversion="1"
       nodesatellites_param="F,0,0,1,0,10.059495,0,1 @ F,0,0,1,0,10.059495,0,1 @ F,0,0,1,0,10.059495,0,1 @ F,0,0,1,0,10.059495,0,1 @ F,0,0,1,0,10.059495,0,1 @ F,0,0,1,0,10.059495,0,1 | F,0,0,1,0,10.059495,0,1 @ F,0,0,1,0,10.059495,0,1 @ F,0,0,1,0,10.059495,0,1 @ F,0,0,1,0,10.059495,0,1 @ F,0,0,1,0,10.059495,0,1 @ F,0,0,1,0,10.059495,0,1"
       radius="10"
       unit="px"
       method="auto"
       mode="F"
       chamfer_steps="1"
       flexible="false"
       use_knot_distance="true"
       apply_no_radius="true"
       apply_with_radius="true"
       only_selected="false"
       hide_knots="true" /><inkscape:path-effect
       effect="fillet_chamfer"
       id="path-effect27"
       is_visible="true"
       lpeversion="1"
       nodesatellites_param="F,0,0,1,0,1.0059495,0,1 @ F,0,0,1,0,1.0059495,0,1 @ F,0,0,1,0,1.0059495,0,1 @ F,0,0,1,0,1.0059495,0,1 @ F,0,0,1,0,1.0059495,0,1 @ F,0,0,1,0,1.0059495,0,1 | F,0,0,1,0,1.0059495,0,1 @ F,0,0,1,0,1.0059495,0,1 @ F,0,0,1,0,1.0059495,0,1 @ F,0,0,1,0,1.0059495,0,1 @ F,0,0,1,0,1.0059495,0,1 @ F,0,0,1,0,1.0059495,0,1"
       radius="1"
       unit="px"
       method="auto"
       mode="F"
       chamfer_steps="1"
       flexible="false"
       use_knot_distance="true"
       apply_no_radius="true"
       apply_with_radius="true"
       only_selected="false"
       hide_knots="false" /><inkscape:perspective
       sodipodi:type="inkscape:persp3d"
       inkscape:vp_x="0.86290112 : 401.83031 : 1"
       inkscape:vp_y="0 : 1000 : 0"
       inkscape:vp_z="509.41129 : 393.2013 : 1"
       inkscape:persp3d-origin="256 : 170.66667 : 1"
       id="perspective7" /><mask
       maskUnits="userSpaceOnUse"
       id="mask55"><path
         id="path56"
         style="fill:#ffffff;fill-opacity:1;stroke:#000000;stroke-width:3.77953;stroke-opacity:0"
         inkscape:label="KinuMask"
         d="M 227.71218,15.479018 58.142475,113.37947 a 51.961347,51.961347 120.00008 0 0 -25.980806,44.99992 v 195.80454 a 51.961348,51.961348 59.999916 0 0 25.980806,44.99992 l 169.569705,97.90046 a 51.961877,51.961877 180 0 0 51.96162,0 l 169.5697,-97.90046 a 51.961348,51.961348 120.00008 0 0 25.98081,-44.99992 V 158.37939 A 51.961347,51.961347 59.999915 0 0 449.2435,113.37947 L 279.6738,15.479018 a 51.961879,51.961879 5.5995955e-8 0 0 -51.96162,0 z"
         transform="matrix(0.46345461,0,0,0.46179355,138.42481,137.65078)"
         inkscape:path-effect="#path-effect55"
         inkscape:original-d="M 253.69299,0.4790948 32.161669,128.37939 V 384.18393 L 253.69299,512.08423 475.22431,384.18393 V 128.37939 Z"
         sodipodi:nodetypes="ccccccccc" /></mask><mask
       maskUnits="userSpaceOnUse"
       id="mask56"><path
         id="path57"
         style="fill:#ffffff;fill-opacity:1;stroke:#000000;stroke-width:3.77953;stroke-opacity:0"
         inkscape:label="Mask"
         d="M 244.9812,5.5088166 40.873462,123.34967 a 17.423497,17.423497 120.00008 0 0 -8.711793,15.08921 v 235.68555 a 17.423497,17.423497 59.999916 0 0 8.711793,15.08922 L 244.9812,507.05451 a 17.423675,17.423675 180 0 0 17.42358,0 L 466.51252,389.21365 a 17.423497,17.423497 120.00008 0 0 8.71179,-15.08922 V 138.43888 a 17.423497,17.423497 59.999915 0 0 -8.71179,-15.08921 L 262.40478,5.5088166 a 17.423675,17.423675 5.5995955e-8 0 0 -17.42358,0 z m 17.42357,78.8363184 135.83374,78.423635 a 17.423555,17.423555 59.999998 0 1 8.71178,15.08924 V 334.7053 a 17.423556,17.423556 120 0 1 -8.71178,15.08925 l -135.83374,78.42364 a 17.423557,17.423557 8.0941651e-7 0 1 -17.42356,0 L 109.14748,349.79455 A 17.423557,17.423557 60 0 1 100.4357,334.7053 V 177.85801 a 17.423556,17.423556 120 0 1 8.71178,-15.08924 L 244.98121,84.345135 a 17.423558,17.423558 180 0 1 17.42356,0 z"
         transform="matrix(0.87140531,0,0,0.86828213,34.930582,33.475213)"
         inkscape:path-effect="#path-effect50"
         inkscape:original-d="M 253.69299,0.4790948 32.161669,128.37939 V 384.18393 L 253.69299,512.08423 475.22431,384.18393 V 128.37939 Z m 0,78.8362932 153.2573,88.483132 V 344.7648 L 253.69299,433.24794 100.4357,344.7648 V 167.79852 Z"
         sodipodi:nodetypes="cccccccccccccc" /></mask></defs><g
     inkscape:label="Reference"
     inkscape:groupmode="layer"
     id="layer1"
     style="display:inline"><image
       width="512"
       height="512"
       preserveAspectRatio="none"
       xlink:href="../auraq-core/templates/assets/android-chrome-512x512.png"
       id="image1"
       x="438"
       y="0"
       style="display:inline" /></g><g
     inkscape:groupmode="layer"
     id="layer2"
     inkscape:label="Logo"><path
       id="path1"
       style="fill:#159c49;fill-opacity:1;stroke:#000000;stroke-width:3.77953;stroke-opacity:0"
       inkscape:label="Green"
       d="M 244.9812,5.5088166 40.873462,123.34967 a 17.423497,17.423497 120.00008 0 0 -8.711793,15.08921 v 235.68555 a 17.423497,17.423497 59.999916 0 0 8.711793,15.08922 L 244.9812,507.05451 a 17.423675,17.423675 180 0 0 17.42358,0 L 466.51252,389.21365 a 17.423497,17.423497 120.00008 0 0 8.71179,-15.08922 V 138.43888 a 17.423497,17.423497 59.999915 0 0 -8.71179,-15.08921 L 262.40478,5.5088166 a 17.423675,17.423675 5.5995955e-8 0 0 -17.42358,0 z M 262.40476,27.925511 447.09845,134.55894 a 17.423595,17.423595 60.000055 0 1 8.71177,15.08926 l 0,213.26693 a 17.423595,17.423595 119.99994 0 1 -8.71177,15.08925 L 262.40476,484.63782 a 17.423478,17.423478 2.4549969e-7 0 1 -17.42354,0 L 60.287532,378.00438 a 17.423596,17.423596 60.000056 0 1 -8.711768,-15.08925 l 0,-213.26694 a 17.423595,17.423595 119.99994 0 1 8.711769,-15.08925 L 244.98122,27.925511 a 17.423479,17.423479 180 0 1 17.42354,0 z"
       transform="matrix(0.99587357,0,0,0.99230429,3.3538564,1.6906078)"
       inkscape:path-effect="#path-effect34"
       inkscape:original-d="M 253.69299,0.4790948 32.161669,128.37939 V 384.18393 L 253.69299,512.08423 475.22431,384.18393 V 128.37939 Z m 0,22.4166522 L 455.81022,139.5887 V 372.97462 L 253.69299,489.66758 51.575764,372.97462 V 139.5887 Z" /><g
       id="g27"
       inkscape:label="Orange"
       mask="url(#mask56)"><path
         id="path24"
         style="display:inline;fill:#ff9124;fill-opacity:1;stroke:none;stroke-width:2.67225"
         d="m 371.38384,322.37816 10e-6,-132.75629 -115.38388,-66.37816 0,-89.353253 193.04441,111.054783 V 367.0548 Z"
         sodipodi:nodetypes="ccccccc"
         inkscape:label="Right" /><path
         id="path23"
         style="display:inline;fill:#f16724;fill-opacity:1;stroke:none;stroke-width:2.67225"
         d="M 255.99997,123.24372 140.6161,189.62187 v 132.75629 l -77.660534,44.67664 1e-6,-222.10957 L 255.99997,33.890457 Z"
         sodipodi:nodetypes="ccccccc"
         inkscape:label="Left"
         mask="none" /><path
         id="path6"
         style="display:inline;fill:#fda40b;fill-opacity:1;stroke:none;stroke-width:2.67225"
         d="M 371.38384,322.37816 255.99997,388.75632 140.6161,322.37816 62.955566,367.0548 255.99997,478.10958 449.04438,367.0548 Z"
         sodipodi:nodetypes="ccccccc"
         inkscape:label="Bottom" /></g><g
       id="g18"
       inkscape:label="Kinu"
       style="display:inline"
       transform="matrix(0.99210834,0,0,0.99210834,2.0202753,2.0202718)"
       mask="url(#mask55)"><path
         style="display:inline;fill:#fda40b;fill-opacity:1;stroke:none;stroke-width:3.77953"
         d="M 475.22511,128.38004 253.69296,0.47839355 32.160821,128.38003 253.69301,256.28162 Z"
         id="path18"
         inkscape:label="Top"
         transform="matrix(0.46345483,0,0,0.46179378,138.42475,137.65074)" /><path
         style="display:inline;fill:#ff9124;fill-opacity:1;stroke:none;stroke-width:3.77953"
         d="m 32.160821,128.38003 -10e-7,255.80329 221.53214,127.90164 5e-5,-255.80334 z"
         id="path17"
         inkscape:label="Left"
         transform="matrix(0.46345483,0,0,0.46179378,138.42475,137.65074)" /><path
         style="display:inline;fill:#f16724;fill-opacity:1;stroke:none;stroke-width:3.77953"
         d="m 475.22511,128.38004 -10e-6,255.80328 -221.53214,127.90164 5e-5,-255.80334 z"
         id="path7"
         inkscape:label="Right"
         transform="matrix(0.46345483,0,0,0.46179378,138.42475,137.65074)" /><g
         id="g22"
         inkscape:label="Stem"
         style="display:inline"
         transform="matrix(0.82749179,0,0,0.82749179,44.162099,32.937998)"><path
           style="display:inline;fill:#16a34c;fill-opacity:1;stroke:none;stroke-width:0.436272"
           d="m 281.6174,180.55854 -25.61742,14.73722 -25.61742,-14.73722 25.61742,-14.73721 z"
           id="path20"
           inkscape:label="Top"
           sodipodi:nodetypes="ccccc" /><path
           style="display:inline;fill:#149b48;fill-opacity:1;stroke:none;stroke-width:0.436272"
           d="m 230.38256,180.55855 v 16.37728 l 25.61742,14.73721 v -16.37728"
           id="path22"
           sodipodi:nodetypes="cccc"
           inkscape:label="Left" /><path
           style="display:inline;fill:#0f7d3f;fill-opacity:1;stroke:none;stroke-width:0.436272"
           d="m 281.6174,180.55855 -25.61742,14.73721 v 16.37728 l 25.61742,-14.73721"
           id="path21"
           sodipodi:nodetypes="cccc"
           inkscape:label="Right" /></g></g></g><metadata
     id="metadata1"><rdf:RDF><cc:Work
         rdf:about=""><dc:title>Kinu Logo</dc:title><dc:creator><cc:Agent><dc:title>Kinu</dc:title></cc:Agent></dc:creator><dc:rights><cc:Agent><dc:title>Kinu</dc:title></cc:Agent></dc:rights><dc:publisher><cc:Agent><dc:title>Kinu</dc:title></cc:Agent></dc:publisher></cc:Work></rdf:RDF></metadata></svg>
